<?xml version="1.0" standalone="no"?>
<!DOCTYPE svg PUBLIC "-//W3C//DTD SVG 20010904//EN"
 "http://www.w3.org/TR/2001/REC-SVG-20010904/DTD/svg10.dtd">
<svg version="1.0" xmlns="http://www.w3.org/2000/svg"
 width="800.000000pt" height="800.000000pt" viewBox="0 0 800.000000 800.000000"
 preserveAspectRatio="xMidYMid meet">
<metadata>
Created by potrace 1.14, written by Peter Selinger 2001-2017
</metadata>
<g transform="translate(0.000000,800.000000) scale(0.100000,-0.100000)"
fill="#000000" stroke="none">
<path d="M0 4000 l0 -4000 4000 0 4000 0 0 4000 0 4000 -4000 0 -4000 0 0
-4000z m5800 606 c0 -1070 -2 -1184 -16 -1190 -9 -3 -281 -6 -605 -6 l-589 0
0 600 0 600 -595 0 -595 0 0 590 0 590 1200 0 1200 0 0 -1184z m-2400 -1786
l0 -600 -595 0 -595 0 0 600 0 600 595 0 595 0 0 -600z"/>
</g>
</svg>
